<?xml version="1.0" encoding="UTF-8"?>
<svg id="Capa_2" xmlns="http://www.w3.org/2000/svg" viewBox="0 0 63.5 663.5">
  <defs>
    <style>
      .cls-1 {
        fill: #f1ecd9;
      }
    </style>
  </defs>
  <g id="grafico">
    <g>
      <path class="cls-1" d="M50.77,632h12.73c0,17.39-14.11,31.5-31.5,31.5h0v-12.73c0-10.36,8.41-18.77,18.77-18.77Z" transform="translate(95.5 1295.5) rotate(-180)"/>
      <path class="cls-1" d="M0,632h0c17.39,0,31.5,14.11,31.5,31.5h-12.73C8.41,663.5,0,655.09,0,644.73v-12.73H0Z"/>
    </g>
    <g>
      <path class="cls-1" d="M50.77,447h12.73c0,17.39-14.11,31.5-31.5,31.5h0v-12.73c0-10.36,8.41-18.77,18.77-18.77Z" transform="translate(95.5 925.5) rotate(-180)"/>
      <path class="cls-1" d="M0,447h0c17.39,0,31.5,14.11,31.5,31.5h-12.73C8.41,478.5,0,470.09,0,459.73v-12.73H0Z"/>
    </g>
    <g>
      <path class="cls-1" d="M32,0h0C49.39,0,63.5,14.11,63.5,31.5h-12.73c-10.36,0-18.77-8.41-18.77-18.77V0h0Z" transform="translate(95.5 31.5) rotate(180)"/>
      <path class="cls-1" d="M18.77,0h12.73C31.5,17.39,17.39,31.5,0,31.5H0v-12.73C0,8.41,8.41,0,18.77,0Z"/>
    </g>
    <g>
      <path class="cls-1" d="M32,182h0c17.39,0,31.5,14.11,31.5,31.5h-12.73c-10.36,0-18.77-8.41-18.77-18.77v-12.73h0Z" transform="translate(95.5 395.5) rotate(180)"/>
      <path class="cls-1" d="M18.77,182h12.73C31.5,199.39,17.39,213.5,0,213.5H0v-12.73C0,190.41,8.41,182,18.77,182Z"/>
    </g>
    <circle class="cls-1" cx="31.75" cy="332" r="9.02"/>
  </g>
</svg>